<?xml version="1.0" encoding="UTF-8"?>
<svg version="1.1" id="Ebene_1" xmlns="http://www.w3.org/2000/svg" xmlns:xlink="http://www.w3.org/1999/xlink" x="0px" y="0px"
	 viewBox="0 0 800 800" style="enable-background:new 0 0 800 800;" xml:space="preserve">
<style type="text/css">
	.st0{fill:#A0C81E;}
	.st1{fill:#007DBE;}
</style>
<g>
	<path d="M53.2,463.31l-10.79,33.7h-9.96l39.26-120.85h9.05l38.93,120.85h-9.96l-10.71-33.7H53.2z M96.28,454.35L76.2,391.1
		l-20.25,63.25H96.28z"/>
	<path d="M201.45,497.01l-55.53-101.76v101.76h-9.88V376.16h9.88l55.45,101.51V376.16h9.96v120.85H201.45z"/>
	<path d="M328.66,469.62v27.39h-23.07l0-120.85h23.07l0,66.24l6.97-7.97l24.82-27.22h27.72l-33.86,37.43l38.6,52.37h-28.3
		l-25.48-37.1L328.66,469.62z"/>
	<path d="M457.14,421.41v51.81c0,2.78,2.25,5.03,5.03,5.03h9.91c5.18,0,9.38,4.2,9.38,9.38l0,0c0,5.18-4.2,9.38-9.38,9.38h-63.83
		v-18.76h25.56v-52.21h-25.56V407.2h34.68C450.78,407.2,457.14,413.56,457.14,421.41z M433.11,379.27c0.64-1.52,1.54-2.84,2.7-3.94
		c1.16-1.05,2.56-1.88,4.19-2.49c1.63-0.61,3.44-0.91,5.44-0.91c4.1,0,7.35,1.15,9.75,3.44c2.41,2.3,3.61,5.24,3.61,8.84
		c0,3.6-1.2,6.54-3.61,8.84c-2.41,2.3-5.66,3.44-9.75,3.44c-1.99,0-3.8-0.3-5.44-0.91c-1.63-0.61-3.03-1.47-4.19-2.57
		c-1.16-1.05-2.06-2.34-2.7-3.86c-0.64-1.52-0.95-3.17-0.95-4.94C432.16,382.44,432.48,380.8,433.11,379.27z"/>
	<path d="M535.94,335.2l0,210.98h-37.18v-17.85h14.19l0-175.29h-14.19V335.2H535.94z"/>
	<path d="M606.34,384.96v112.05h-9.71l0.08-112.05h-38.6v-8.8h86.82v8.8H606.34z"/>
	<g>
		<rect x="645.02" y="294.59" class="st0" width="40.83" height="40.83"/>
		<rect x="685.85" y="253.82" class="st1" width="40.75" height="40.77"/>
		<rect x="726.6" y="294.59" class="st1" width="40.95" height="40.83"/>
		<rect x="685.85" y="335.42" class="st1" width="40.75" height="40.84"/>
	</g>
	<path d="M243.65,546.18l0-210.98h37.18v17.85h-14.19l0,175.29h14.19v17.85H243.65z"/>
</g>
</svg>